<?xml version="1.0" encoding="utf-8" standalone="no"?>
<!DOCTYPE svg PUBLIC "-//W3C//DTD SVG 1.1//EN"
  "http://www.w3.org/Graphics/SVG/1.1/DTD/svg11.dtd">
<!-- Created with matplotlib (http://matplotlib.org/) -->
<svg height="281.418125pt" version="1.1" viewBox="0 0 582.253618 281.418125" width="582.253618pt" xmlns="http://www.w3.org/2000/svg" xmlns:xlink="http://www.w3.org/1999/xlink">
 <defs>
  <style type="text/css">
*{stroke-linecap:butt;stroke-linejoin:round;}
  </style>
 </defs>
 <g id="figure_1">
  <g id="patch_1">
   <path d="M 0 281.418125 
L 582.253618 281.418125 
L 582.253618 0 
L 0 0 
z
" style="fill:#ffffff;"/>
  </g>
  <g id="axes_1">
   <g id="patch_2">
    <path d="M 262.277618 135.42 
C 262.277618 109.07502 251.118869 83.773525 231.258602 65.087071 
C 211.398335 46.400618 184.409819 35.809489 156.236104 35.645923 
L 155.573618 135.42 
L 262.277618 135.42 
z
" style="fill:#1b1462;"/>
   </g>
   <g id="patch_3">
    <path d="M 156.236104 35.645923 
C 148.2781 35.599722 140.339486 36.386143 132.568486 37.990504 
C 124.797486 39.594864 117.242765 42.007117 110.045378 45.182222 
L 155.573618 135.42 
L 156.236104 35.645923 
z
" style="fill:#d62728;"/>
   </g>
   <g id="patch_4">
    <path d="M 110.045378 45.182222 
C 109.645937 45.358434 109.24767 45.536963 108.8506 45.7178 
C 108.45353 45.898636 108.057664 46.081776 107.663026 46.267209 
L 155.573618 135.42 
L 110.045378 45.182222 
z
" style="fill:#2ca02c;"/>
   </g>
   <g id="patch_5">
    <path d="M 107.663026 46.267209 
C 88.581399 55.233292 72.810698 69.352673 62.402063 86.788983 
C 51.993427 104.225292 47.418556 124.188351 49.272457 144.081761 
L 155.573618 135.42 
L 107.663026 46.267209 
z
" style="fill:#f9c013;"/>
   </g>
   <g id="patch_6">
    <path d="M 49.272457 144.081761 
C 49.502533 146.550601 49.830895 149.010569 50.256861 151.456546 
C 50.682828 153.902524 51.206102 156.332812 51.825595 158.742356 
L 155.573618 135.42 
L 49.272457 144.081761 
z
" style="fill:#9467bd;"/>
   </g>
   <g id="patch_7">
    <path d="M 51.825595 158.742356 
C 51.928832 159.143901 52.034735 159.544844 52.143296 159.94516 
C 52.251858 160.345475 52.363076 160.745157 52.476945 161.144182 
L 155.573618 135.42 
L 51.825595 158.742356 
z
" style="fill:#1f77b4;"/>
   </g>
   <g id="patch_8">
    <path d="M 52.476945 161.144182 
C 57.750243 179.623085 68.596077 196.300308 83.716399 209.179895 
C 98.836722 222.059483 117.603263 230.606269 137.770014 233.797362 
C 157.936766 236.988456 178.665769 234.691261 197.476148 227.18071 
C 216.286527 219.670159 232.396681 207.258327 243.878524 191.430679 
L 155.573618 135.42 
L 52.476945 161.144182 
z
" style="fill:#ff7f0e;"/>
   </g>
   <g id="patch_9">
    <path d="M 243.878524 191.430679 
C 246.358646 188.011847 248.609299 184.452281 250.617484 180.772542 
C 252.62567 177.092803 254.387513 173.29999 255.892837 169.416009 
L 155.573618 135.42 
L 243.878524 191.430679 
z
" style="fill:#17becf;"/>
   </g>
   <g id="patch_10">
    <path d="M 255.892837 169.416009 
C 256.344302 168.251155 256.772525 167.078539 257.177281 165.898771 
C 257.582038 164.719003 257.963259 163.532287 258.320745 162.339242 
L 155.573618 135.42 
L 255.892837 169.416009 
z
" style="fill:#bcbd22;"/>
   </g>
   <g id="patch_11">
    <path d="M 258.320745 162.339242 
C 259.631999 157.963169 260.621981 153.508433 261.283772 149.006163 
C 261.945563 144.503892 262.277619 139.964598 262.277618 135.419999 
L 155.573618 135.42 
L 258.320745 162.339242 
z
" style="fill:#aeaeae;"/>
   </g>
   <g id="matplotlib.axis_1">
    <g id="text_1">
     <!-- Głosowanie w standardowym systemie -->
     <defs>
      <path d="M 59.515625 10.40625 
L 59.515625 29.984375 
L 43.40625 29.984375 
L 43.40625 38.09375 
L 69.28125 38.09375 
L 69.28125 6.78125 
Q 63.578125 2.734375 56.6875 0.65625 
Q 49.8125 -1.421875 42 -1.421875 
Q 24.90625 -1.421875 15.25 8.5625 
Q 5.609375 18.5625 5.609375 36.375 
Q 5.609375 54.25 15.25 64.234375 
Q 24.90625 74.21875 42 74.21875 
Q 49.125 74.21875 55.546875 72.453125 
Q 61.96875 70.703125 67.390625 67.28125 
L 67.390625 56.78125 
Q 61.921875 61.421875 55.765625 63.765625 
Q 49.609375 66.109375 42.828125 66.109375 
Q 29.4375 66.109375 22.71875 58.640625 
Q 16.015625 51.171875 16.015625 36.375 
Q 16.015625 21.625 22.71875 14.15625 
Q 29.4375 6.6875 42.828125 6.6875 
Q 48.046875 6.6875 52.140625 7.59375 
Q 56.25 8.5 59.515625 10.40625 
z
" id="DejaVuSans-47"/>
      <path d="M 9.71875 75.984375 
L 18.703125 75.984375 
L 18.703125 46.578125 
L 24.8125 50.984375 
L 28.515625 45.796875 
L 18.703125 38.921875 
L 18.703125 0 
L 9.71875 0 
L 9.71875 32.515625 
L 3.71875 28.21875 
L 0.09375 33.40625 
L 9.71875 40.28125 
z
" id="DejaVuSans-142"/>
      <path d="M 30.609375 48.390625 
Q 23.390625 48.390625 19.1875 42.75 
Q 14.984375 37.109375 14.984375 27.296875 
Q 14.984375 17.484375 19.15625 11.84375 
Q 23.34375 6.203125 30.609375 6.203125 
Q 37.796875 6.203125 41.984375 11.859375 
Q 46.1875 17.53125 46.1875 27.296875 
Q 46.1875 37.015625 41.984375 42.703125 
Q 37.796875 48.390625 30.609375 48.390625 
z
M 30.609375 56 
Q 42.328125 56 49.015625 48.375 
Q 55.71875 40.765625 55.71875 27.296875 
Q 55.71875 13.875 49.015625 6.21875 
Q 42.328125 -1.421875 30.609375 -1.421875 
Q 18.84375 -1.421875 12.171875 6.21875 
Q 5.515625 13.875 5.515625 27.296875 
Q 5.515625 40.765625 12.171875 48.375 
Q 18.84375 56 30.609375 56 
z
" id="DejaVuSans-6f"/>
      <path d="M 44.28125 53.078125 
L 44.28125 44.578125 
Q 40.484375 46.53125 36.375 47.5 
Q 32.28125 48.484375 27.875 48.484375 
Q 21.1875 48.484375 17.84375 46.4375 
Q 14.5 44.390625 14.5 40.28125 
Q 14.5 37.15625 16.890625 35.375 
Q 19.28125 33.59375 26.515625 31.984375 
L 29.59375 31.296875 
Q 39.15625 29.25 43.1875 25.515625 
Q 47.21875 21.78125 47.21875 15.09375 
Q 47.21875 7.46875 41.1875 3.015625 
Q 35.15625 -1.421875 24.609375 -1.421875 
Q 20.21875 -1.421875 15.453125 -0.5625 
Q 10.6875 0.296875 5.421875 2 
L 5.421875 11.28125 
Q 10.40625 8.6875 15.234375 7.390625 
Q 20.0625 6.109375 24.8125 6.109375 
Q 31.15625 6.109375 34.5625 8.28125 
Q 37.984375 10.453125 37.984375 14.40625 
Q 37.984375 18.0625 35.515625 20.015625 
Q 33.0625 21.96875 24.703125 23.78125 
L 21.578125 24.515625 
Q 13.234375 26.265625 9.515625 29.90625 
Q 5.8125 33.546875 5.8125 39.890625 
Q 5.8125 47.609375 11.28125 51.796875 
Q 16.75 56 26.8125 56 
Q 31.78125 56 36.171875 55.265625 
Q 40.578125 54.546875 44.28125 53.078125 
z
" id="DejaVuSans-73"/>
      <path d="M 4.203125 54.6875 
L 13.1875 54.6875 
L 24.421875 12.015625 
L 35.59375 54.6875 
L 46.1875 54.6875 
L 57.421875 12.015625 
L 68.609375 54.6875 
L 77.59375 54.6875 
L 63.28125 0 
L 52.6875 0 
L 40.921875 44.828125 
L 29.109375 0 
L 18.5 0 
z
" id="DejaVuSans-77"/>
      <path d="M 34.28125 27.484375 
Q 23.390625 27.484375 19.1875 25 
Q 14.984375 22.515625 14.984375 16.5 
Q 14.984375 11.71875 18.140625 8.90625 
Q 21.296875 6.109375 26.703125 6.109375 
Q 34.1875 6.109375 38.703125 11.40625 
Q 43.21875 16.703125 43.21875 25.484375 
L 43.21875 27.484375 
z
M 52.203125 31.203125 
L 52.203125 0 
L 43.21875 0 
L 43.21875 8.296875 
Q 40.140625 3.328125 35.546875 0.953125 
Q 30.953125 -1.421875 24.3125 -1.421875 
Q 15.921875 -1.421875 10.953125 3.296875 
Q 6 8.015625 6 15.921875 
Q 6 25.140625 12.171875 29.828125 
Q 18.359375 34.515625 30.609375 34.515625 
L 43.21875 34.515625 
L 43.21875 35.40625 
Q 43.21875 41.609375 39.140625 45 
Q 35.0625 48.390625 27.6875 48.390625 
Q 23 48.390625 18.546875 47.265625 
Q 14.109375 46.140625 10.015625 43.890625 
L 10.015625 52.203125 
Q 14.9375 54.109375 19.578125 55.046875 
Q 24.21875 56 28.609375 56 
Q 40.484375 56 46.34375 49.84375 
Q 52.203125 43.703125 52.203125 31.203125 
z
" id="DejaVuSans-61"/>
      <path d="M 54.890625 33.015625 
L 54.890625 0 
L 45.90625 0 
L 45.90625 32.71875 
Q 45.90625 40.484375 42.875 44.328125 
Q 39.84375 48.1875 33.796875 48.1875 
Q 26.515625 48.1875 22.3125 43.546875 
Q 18.109375 38.921875 18.109375 30.90625 
L 18.109375 0 
L 9.078125 0 
L 9.078125 54.6875 
L 18.109375 54.6875 
L 18.109375 46.1875 
Q 21.34375 51.125 25.703125 53.5625 
Q 30.078125 56 35.796875 56 
Q 45.21875 56 50.046875 50.171875 
Q 54.890625 44.34375 54.890625 33.015625 
z
" id="DejaVuSans-6e"/>
      <path d="M 9.421875 54.6875 
L 18.40625 54.6875 
L 18.40625 0 
L 9.421875 0 
z
M 9.421875 75.984375 
L 18.40625 75.984375 
L 18.40625 64.59375 
L 9.421875 64.59375 
z
" id="DejaVuSans-69"/>
      <path d="M 56.203125 29.59375 
L 56.203125 25.203125 
L 14.890625 25.203125 
Q 15.484375 15.921875 20.484375 11.0625 
Q 25.484375 6.203125 34.421875 6.203125 
Q 39.59375 6.203125 44.453125 7.46875 
Q 49.3125 8.734375 54.109375 11.28125 
L 54.109375 2.78125 
Q 49.265625 0.734375 44.1875 -0.34375 
Q 39.109375 -1.421875 33.890625 -1.421875 
Q 20.796875 -1.421875 13.15625 6.1875 
Q 5.515625 13.8125 5.515625 26.8125 
Q 5.515625 40.234375 12.765625 48.109375 
Q 20.015625 56 32.328125 56 
Q 43.359375 56 49.78125 48.890625 
Q 56.203125 41.796875 56.203125 29.59375 
z
M 47.21875 32.234375 
Q 47.125 39.59375 43.09375 43.984375 
Q 39.0625 48.390625 32.421875 48.390625 
Q 24.90625 48.390625 20.390625 44.140625 
Q 15.875 39.890625 15.1875 32.171875 
z
" id="DejaVuSans-65"/>
      <path id="DejaVuSans-20"/>
      <path d="M 18.3125 70.21875 
L 18.3125 54.6875 
L 36.8125 54.6875 
L 36.8125 47.703125 
L 18.3125 47.703125 
L 18.3125 18.015625 
Q 18.3125 11.328125 20.140625 9.421875 
Q 21.96875 7.515625 27.59375 7.515625 
L 36.8125 7.515625 
L 36.8125 0 
L 27.59375 0 
Q 17.1875 0 13.234375 3.875 
Q 9.28125 7.765625 9.28125 18.015625 
L 9.28125 47.703125 
L 2.6875 47.703125 
L 2.6875 54.6875 
L 9.28125 54.6875 
L 9.28125 70.21875 
z
" id="DejaVuSans-74"/>
      <path d="M 45.40625 46.390625 
L 45.40625 75.984375 
L 54.390625 75.984375 
L 54.390625 0 
L 45.40625 0 
L 45.40625 8.203125 
Q 42.578125 3.328125 38.25 0.953125 
Q 33.9375 -1.421875 27.875 -1.421875 
Q 17.96875 -1.421875 11.734375 6.484375 
Q 5.515625 14.40625 5.515625 27.296875 
Q 5.515625 40.1875 11.734375 48.09375 
Q 17.96875 56 27.875 56 
Q 33.9375 56 38.25 53.625 
Q 42.578125 51.265625 45.40625 46.390625 
z
M 14.796875 27.296875 
Q 14.796875 17.390625 18.875 11.75 
Q 22.953125 6.109375 30.078125 6.109375 
Q 37.203125 6.109375 41.296875 11.75 
Q 45.40625 17.390625 45.40625 27.296875 
Q 45.40625 37.203125 41.296875 42.84375 
Q 37.203125 48.484375 30.078125 48.484375 
Q 22.953125 48.484375 18.875 42.84375 
Q 14.796875 37.203125 14.796875 27.296875 
z
" id="DejaVuSans-64"/>
      <path d="M 41.109375 46.296875 
Q 39.59375 47.171875 37.8125 47.578125 
Q 36.03125 48 33.890625 48 
Q 26.265625 48 22.1875 43.046875 
Q 18.109375 38.09375 18.109375 28.8125 
L 18.109375 0 
L 9.078125 0 
L 9.078125 54.6875 
L 18.109375 54.6875 
L 18.109375 46.1875 
Q 20.953125 51.171875 25.484375 53.578125 
Q 30.03125 56 36.53125 56 
Q 37.453125 56 38.578125 55.875 
Q 39.703125 55.765625 41.0625 55.515625 
z
" id="DejaVuSans-72"/>
      <path d="M 32.171875 -5.078125 
Q 28.375 -14.84375 24.75 -17.8125 
Q 21.140625 -20.796875 15.09375 -20.796875 
L 7.90625 -20.796875 
L 7.90625 -13.28125 
L 13.1875 -13.28125 
Q 16.890625 -13.28125 18.9375 -11.515625 
Q 21 -9.765625 23.484375 -3.21875 
L 25.09375 0.875 
L 2.984375 54.6875 
L 12.5 54.6875 
L 29.59375 11.921875 
L 46.6875 54.6875 
L 56.203125 54.6875 
z
" id="DejaVuSans-79"/>
      <path d="M 52 44.1875 
Q 55.375 50.25 60.0625 53.125 
Q 64.75 56 71.09375 56 
Q 79.640625 56 84.28125 50.015625 
Q 88.921875 44.046875 88.921875 33.015625 
L 88.921875 0 
L 79.890625 0 
L 79.890625 32.71875 
Q 79.890625 40.578125 77.09375 44.375 
Q 74.3125 48.1875 68.609375 48.1875 
Q 61.625 48.1875 57.5625 43.546875 
Q 53.515625 38.921875 53.515625 30.90625 
L 53.515625 0 
L 44.484375 0 
L 44.484375 32.71875 
Q 44.484375 40.625 41.703125 44.40625 
Q 38.921875 48.1875 33.109375 48.1875 
Q 26.21875 48.1875 22.15625 43.53125 
Q 18.109375 38.875 18.109375 30.90625 
L 18.109375 0 
L 9.078125 0 
L 9.078125 54.6875 
L 18.109375 54.6875 
L 18.109375 46.1875 
Q 21.1875 51.21875 25.484375 53.609375 
Q 29.78125 56 35.6875 56 
Q 41.65625 56 45.828125 52.96875 
Q 50 49.953125 52 44.1875 
z
" id="DejaVuSans-6d"/>
     </defs>
     <g transform="translate(58.126743 271.738437)scale(0.1 -0.1)">
      <use xlink:href="#DejaVuSans-47"/>
      <use x="77.490234" xlink:href="#DejaVuSans-142"/>
      <use x="105.908203" xlink:href="#DejaVuSans-6f"/>
      <use x="167.089844" xlink:href="#DejaVuSans-73"/>
      <use x="219.189453" xlink:href="#DejaVuSans-6f"/>
      <use x="280.371094" xlink:href="#DejaVuSans-77"/>
      <use x="362.158203" xlink:href="#DejaVuSans-61"/>
      <use x="423.4375" xlink:href="#DejaVuSans-6e"/>
      <use x="486.816406" xlink:href="#DejaVuSans-69"/>
      <use x="514.599609" xlink:href="#DejaVuSans-65"/>
      <use x="576.123047" xlink:href="#DejaVuSans-20"/>
      <use x="607.910156" xlink:href="#DejaVuSans-77"/>
      <use x="689.697266" xlink:href="#DejaVuSans-20"/>
      <use x="721.484375" xlink:href="#DejaVuSans-73"/>
      <use x="773.583984" xlink:href="#DejaVuSans-74"/>
      <use x="812.792969" xlink:href="#DejaVuSans-61"/>
      <use x="874.072266" xlink:href="#DejaVuSans-6e"/>
      <use x="937.451172" xlink:href="#DejaVuSans-64"/>
      <use x="1000.927734" xlink:href="#DejaVuSans-61"/>
      <use x="1062.207031" xlink:href="#DejaVuSans-72"/>
      <use x="1103.304688" xlink:href="#DejaVuSans-64"/>
      <use x="1166.78125" xlink:href="#DejaVuSans-6f"/>
      <use x="1227.962891" xlink:href="#DejaVuSans-77"/>
      <use x="1309.75" xlink:href="#DejaVuSans-79"/>
      <use x="1368.929688" xlink:href="#DejaVuSans-6d"/>
      <use x="1466.341797" xlink:href="#DejaVuSans-20"/>
      <use x="1498.128906" xlink:href="#DejaVuSans-73"/>
      <use x="1550.228516" xlink:href="#DejaVuSans-79"/>
      <use x="1609.408203" xlink:href="#DejaVuSans-73"/>
      <use x="1661.507812" xlink:href="#DejaVuSans-74"/>
      <use x="1700.716797" xlink:href="#DejaVuSans-65"/>
      <use x="1762.240234" xlink:href="#DejaVuSans-6d"/>
      <use x="1859.652344" xlink:href="#DejaVuSans-69"/>
      <use x="1887.435547" xlink:href="#DejaVuSans-65"/>
     </g>
    </g>
   </g>
   <g id="matplotlib.axis_2"/>
   <g id="text_2">
    <g id="patch_12">
     <path d="M 175.442339 83.592167 
L 264.36937 83.592167 
L 264.36937 67.681854 
L 175.442339 67.681854 
z
" style="fill:#ffffff;fill-opacity:0.439216;stroke:#ffffff;stroke-linejoin:miter;stroke-opacity:0.439216;"/>
    </g>
    <!-- BIEDROŃ: 24.90% -->
    <defs>
     <path d="M 19.671875 34.8125 
L 19.671875 8.109375 
L 35.5 8.109375 
Q 43.453125 8.109375 47.28125 11.40625 
Q 51.125 14.703125 51.125 21.484375 
Q 51.125 28.328125 47.28125 31.5625 
Q 43.453125 34.8125 35.5 34.8125 
z
M 19.671875 64.796875 
L 19.671875 42.828125 
L 34.28125 42.828125 
Q 41.5 42.828125 45.03125 45.53125 
Q 48.578125 48.25 48.578125 53.8125 
Q 48.578125 59.328125 45.03125 62.0625 
Q 41.5 64.796875 34.28125 64.796875 
z
M 9.8125 72.90625 
L 35.015625 72.90625 
Q 46.296875 72.90625 52.390625 68.21875 
Q 58.5 63.53125 58.5 54.890625 
Q 58.5 48.1875 55.375 44.234375 
Q 52.25 40.28125 46.1875 39.3125 
Q 53.46875 37.75 57.5 32.78125 
Q 61.53125 27.828125 61.53125 20.40625 
Q 61.53125 10.640625 54.890625 5.3125 
Q 48.25 0 35.984375 0 
L 9.8125 0 
z
" id="DejaVuSans-42"/>
     <path d="M 9.8125 72.90625 
L 19.671875 72.90625 
L 19.671875 0 
L 9.8125 0 
z
" id="DejaVuSans-49"/>
     <path d="M 9.8125 72.90625 
L 55.90625 72.90625 
L 55.90625 64.59375 
L 19.671875 64.59375 
L 19.671875 43.015625 
L 54.390625 43.015625 
L 54.390625 34.71875 
L 19.671875 34.71875 
L 19.671875 8.296875 
L 56.78125 8.296875 
L 56.78125 0 
L 9.8125 0 
z
" id="DejaVuSans-45"/>
     <path d="M 19.671875 64.796875 
L 19.671875 8.109375 
L 31.59375 8.109375 
Q 46.6875 8.109375 53.6875 14.9375 
Q 60.6875 21.78125 60.6875 36.53125 
Q 60.6875 51.171875 53.6875 57.984375 
Q 46.6875 64.796875 31.59375 64.796875 
z
M 9.8125 72.90625 
L 30.078125 72.90625 
Q 51.265625 72.90625 61.171875 64.09375 
Q 71.09375 55.28125 71.09375 36.53125 
Q 71.09375 17.671875 61.125 8.828125 
Q 51.171875 0 30.078125 0 
L 9.8125 0 
z
" id="DejaVuSans-44"/>
     <path d="M 44.390625 34.1875 
Q 47.5625 33.109375 50.5625 29.59375 
Q 53.5625 26.078125 56.59375 19.921875 
L 66.609375 0 
L 56 0 
L 46.6875 18.703125 
Q 43.0625 26.03125 39.671875 28.421875 
Q 36.28125 30.8125 30.421875 30.8125 
L 19.671875 30.8125 
L 19.671875 0 
L 9.8125 0 
L 9.8125 72.90625 
L 32.078125 72.90625 
Q 44.578125 72.90625 50.734375 67.671875 
Q 56.890625 62.453125 56.890625 51.90625 
Q 56.890625 45.015625 53.6875 40.46875 
Q 50.484375 35.9375 44.390625 34.1875 
z
M 19.671875 64.796875 
L 19.671875 38.921875 
L 32.078125 38.921875 
Q 39.203125 38.921875 42.84375 42.21875 
Q 46.484375 45.515625 46.484375 51.90625 
Q 46.484375 58.296875 42.84375 61.546875 
Q 39.203125 64.796875 32.078125 64.796875 
z
" id="DejaVuSans-52"/>
     <path d="M 39.40625 66.21875 
Q 28.65625 66.21875 22.328125 58.203125 
Q 16.015625 50.203125 16.015625 36.375 
Q 16.015625 22.609375 22.328125 14.59375 
Q 28.65625 6.59375 39.40625 6.59375 
Q 50.140625 6.59375 56.421875 14.59375 
Q 62.703125 22.609375 62.703125 36.375 
Q 62.703125 50.203125 56.421875 58.203125 
Q 50.140625 66.21875 39.40625 66.21875 
z
M 39.40625 74.21875 
Q 54.734375 74.21875 63.90625 63.9375 
Q 73.09375 53.65625 73.09375 36.375 
Q 73.09375 19.140625 63.90625 8.859375 
Q 54.734375 -1.421875 39.40625 -1.421875 
Q 24.03125 -1.421875 14.8125 8.828125 
Q 5.609375 19.09375 5.609375 36.375 
Q 5.609375 53.65625 14.8125 63.9375 
Q 24.03125 74.21875 39.40625 74.21875 
z
" id="DejaVuSans-4f"/>
     <path d="M 37.3125 92.515625 
L 46.34375 92.515625 
L 35.21875 79.625 
L 27.734375 79.625 
z
M 9.8125 72.90625 
L 23.09375 72.90625 
L 55.421875 11.921875 
L 55.421875 72.90625 
L 64.984375 72.90625 
L 64.984375 0 
L 51.703125 0 
L 19.390625 60.984375 
L 19.390625 0 
L 9.8125 0 
z
" id="DejaVuSans-143"/>
     <path d="M 11.71875 12.40625 
L 22.015625 12.40625 
L 22.015625 0 
L 11.71875 0 
z
M 11.71875 51.703125 
L 22.015625 51.703125 
L 22.015625 39.3125 
L 11.71875 39.3125 
z
" id="DejaVuSans-3a"/>
     <path d="M 19.1875 8.296875 
L 53.609375 8.296875 
L 53.609375 0 
L 7.328125 0 
L 7.328125 8.296875 
Q 12.9375 14.109375 22.625 23.890625 
Q 32.328125 33.6875 34.8125 36.53125 
Q 39.546875 41.84375 41.421875 45.53125 
Q 43.3125 49.21875 43.3125 52.78125 
Q 43.3125 58.59375 39.234375 62.25 
Q 35.15625 65.921875 28.609375 65.921875 
Q 23.96875 65.921875 18.8125 64.3125 
Q 13.671875 62.703125 7.8125 59.421875 
L 7.8125 69.390625 
Q 13.765625 71.78125 18.9375 73 
Q 24.125 74.21875 28.421875 74.21875 
Q 39.75 74.21875 46.484375 68.546875 
Q 53.21875 62.890625 53.21875 53.421875 
Q 53.21875 48.921875 51.53125 44.890625 
Q 49.859375 40.875 45.40625 35.40625 
Q 44.1875 33.984375 37.640625 27.21875 
Q 31.109375 20.453125 19.1875 8.296875 
z
" id="DejaVuSans-32"/>
     <path d="M 37.796875 64.3125 
L 12.890625 25.390625 
L 37.796875 25.390625 
z
M 35.203125 72.90625 
L 47.609375 72.90625 
L 47.609375 25.390625 
L 58.015625 25.390625 
L 58.015625 17.1875 
L 47.609375 17.1875 
L 47.609375 0 
L 37.796875 0 
L 37.796875 17.1875 
L 4.890625 17.1875 
L 4.890625 26.703125 
z
" id="DejaVuSans-34"/>
     <path d="M 10.6875 12.40625 
L 21 12.40625 
L 21 0 
L 10.6875 0 
z
" id="DejaVuSans-2e"/>
     <path d="M 10.984375 1.515625 
L 10.984375 10.5 
Q 14.703125 8.734375 18.5 7.8125 
Q 22.3125 6.890625 25.984375 6.890625 
Q 35.75 6.890625 40.890625 13.453125 
Q 46.046875 20.015625 46.78125 33.40625 
Q 43.953125 29.203125 39.59375 26.953125 
Q 35.25 24.703125 29.984375 24.703125 
Q 19.046875 24.703125 12.671875 31.3125 
Q 6.296875 37.9375 6.296875 49.421875 
Q 6.296875 60.640625 12.9375 67.421875 
Q 19.578125 74.21875 30.609375 74.21875 
Q 43.265625 74.21875 49.921875 64.515625 
Q 56.59375 54.828125 56.59375 36.375 
Q 56.59375 19.140625 48.40625 8.859375 
Q 40.234375 -1.421875 26.421875 -1.421875 
Q 22.703125 -1.421875 18.890625 -0.6875 
Q 15.09375 0.046875 10.984375 1.515625 
z
M 30.609375 32.421875 
Q 37.25 32.421875 41.125 36.953125 
Q 45.015625 41.5 45.015625 49.421875 
Q 45.015625 57.28125 41.125 61.84375 
Q 37.25 66.40625 30.609375 66.40625 
Q 23.96875 66.40625 20.09375 61.84375 
Q 16.21875 57.28125 16.21875 49.421875 
Q 16.21875 41.5 20.09375 36.953125 
Q 23.96875 32.421875 30.609375 32.421875 
z
" id="DejaVuSans-39"/>
     <path d="M 31.78125 66.40625 
Q 24.171875 66.40625 20.328125 58.90625 
Q 16.5 51.421875 16.5 36.375 
Q 16.5 21.390625 20.328125 13.890625 
Q 24.171875 6.390625 31.78125 6.390625 
Q 39.453125 6.390625 43.28125 13.890625 
Q 47.125 21.390625 47.125 36.375 
Q 47.125 51.421875 43.28125 58.90625 
Q 39.453125 66.40625 31.78125 66.40625 
z
M 31.78125 74.21875 
Q 44.046875 74.21875 50.515625 64.515625 
Q 56.984375 54.828125 56.984375 36.375 
Q 56.984375 17.96875 50.515625 8.265625 
Q 44.046875 -1.421875 31.78125 -1.421875 
Q 19.53125 -1.421875 13.0625 8.265625 
Q 6.59375 17.96875 6.59375 36.375 
Q 6.59375 54.828125 13.0625 64.515625 
Q 19.53125 74.21875 31.78125 74.21875 
z
" id="DejaVuSans-30"/>
     <path d="M 72.703125 32.078125 
Q 68.453125 32.078125 66.03125 28.46875 
Q 63.625 24.859375 63.625 18.40625 
Q 63.625 12.0625 66.03125 8.421875 
Q 68.453125 4.78125 72.703125 4.78125 
Q 76.859375 4.78125 79.265625 8.421875 
Q 81.6875 12.0625 81.6875 18.40625 
Q 81.6875 24.8125 79.265625 28.4375 
Q 76.859375 32.078125 72.703125 32.078125 
z
M 72.703125 38.28125 
Q 80.421875 38.28125 84.953125 32.90625 
Q 89.5 27.546875 89.5 18.40625 
Q 89.5 9.28125 84.9375 3.921875 
Q 80.375 -1.421875 72.703125 -1.421875 
Q 64.890625 -1.421875 60.34375 3.921875 
Q 55.8125 9.28125 55.8125 18.40625 
Q 55.8125 27.59375 60.375 32.9375 
Q 64.9375 38.28125 72.703125 38.28125 
z
M 22.3125 68.015625 
Q 18.109375 68.015625 15.6875 64.375 
Q 13.28125 60.75 13.28125 54.390625 
Q 13.28125 47.953125 15.671875 44.328125 
Q 18.0625 40.71875 22.3125 40.71875 
Q 26.5625 40.71875 28.96875 44.328125 
Q 31.390625 47.953125 31.390625 54.390625 
Q 31.390625 60.6875 28.953125 64.34375 
Q 26.515625 68.015625 22.3125 68.015625 
z
M 66.40625 74.21875 
L 74.21875 74.21875 
L 28.609375 -1.421875 
L 20.796875 -1.421875 
z
M 22.3125 74.21875 
Q 30.03125 74.21875 34.609375 68.875 
Q 39.203125 63.53125 39.203125 54.390625 
Q 39.203125 45.171875 34.640625 39.84375 
Q 30.078125 34.515625 22.3125 34.515625 
Q 14.546875 34.515625 10.03125 39.859375 
Q 5.515625 45.21875 5.515625 54.390625 
Q 5.515625 63.484375 10.046875 68.84375 
Q 14.59375 74.21875 22.3125 74.21875 
z
" id="DejaVuSans-25"/>
    </defs>
    <g transform="translate(179.042339 78.120448)scale(0.09 -0.09)">
     <use xlink:href="#DejaVuSans-42"/>
     <use x="68.603516" xlink:href="#DejaVuSans-49"/>
     <use x="98.095703" xlink:href="#DejaVuSans-45"/>
     <use x="161.279297" xlink:href="#DejaVuSans-44"/>
     <use x="238.28125" xlink:href="#DejaVuSans-52"/>
     <use x="307.763672" xlink:href="#DejaVuSans-4f"/>
     <use x="386.474609" xlink:href="#DejaVuSans-143"/>
     <use x="461.279297" xlink:href="#DejaVuSans-3a"/>
     <use x="494.970703" xlink:href="#DejaVuSans-20"/>
     <use x="526.757812" xlink:href="#DejaVuSans-32"/>
     <use x="590.380859" xlink:href="#DejaVuSans-34"/>
     <use x="654.003906" xlink:href="#DejaVuSans-2e"/>
     <use x="685.791016" xlink:href="#DejaVuSans-39"/>
     <use x="749.414062" xlink:href="#DejaVuSans-30"/>
     <use x="813.037109" xlink:href="#DejaVuSans-25"/>
    </g>
   </g>
   <g id="text_3">
    <g id="patch_13">
     <path d="M 99.662068 60.560084 
L 172.376443 60.560084 
L 172.376443 44.649772 
L 99.662068 44.649772 
z
" style="fill:#ffffff;fill-opacity:0.439216;stroke:#ffffff;stroke-linejoin:miter;stroke-opacity:0.439216;"/>
    </g>
    <!-- BOSAK: 7.11% -->
    <defs>
     <path d="M 53.515625 70.515625 
L 53.515625 60.890625 
Q 47.90625 63.578125 42.921875 64.890625 
Q 37.9375 66.21875 33.296875 66.21875 
Q 25.25 66.21875 20.875 63.09375 
Q 16.5 59.96875 16.5 54.203125 
Q 16.5 49.359375 19.40625 46.890625 
Q 22.3125 44.4375 30.421875 42.921875 
L 36.375 41.703125 
Q 47.40625 39.59375 52.65625 34.296875 
Q 57.90625 29 57.90625 20.125 
Q 57.90625 9.515625 50.796875 4.046875 
Q 43.703125 -1.421875 29.984375 -1.421875 
Q 24.8125 -1.421875 18.96875 -0.25 
Q 13.140625 0.921875 6.890625 3.21875 
L 6.890625 13.375 
Q 12.890625 10.015625 18.65625 8.296875 
Q 24.421875 6.59375 29.984375 6.59375 
Q 38.421875 6.59375 43.015625 9.90625 
Q 47.609375 13.234375 47.609375 19.390625 
Q 47.609375 24.75 44.3125 27.78125 
Q 41.015625 30.8125 33.5 32.328125 
L 27.484375 33.5 
Q 16.453125 35.6875 11.515625 40.375 
Q 6.59375 45.0625 6.59375 53.421875 
Q 6.59375 63.09375 13.40625 68.65625 
Q 20.21875 74.21875 32.171875 74.21875 
Q 37.3125 74.21875 42.625 73.28125 
Q 47.953125 72.359375 53.515625 70.515625 
z
" id="DejaVuSans-53"/>
     <path d="M 34.1875 63.1875 
L 20.796875 26.90625 
L 47.609375 26.90625 
z
M 28.609375 72.90625 
L 39.796875 72.90625 
L 67.578125 0 
L 57.328125 0 
L 50.6875 18.703125 
L 17.828125 18.703125 
L 11.1875 0 
L 0.78125 0 
z
" id="DejaVuSans-41"/>
     <path d="M 9.8125 72.90625 
L 19.671875 72.90625 
L 19.671875 42.09375 
L 52.390625 72.90625 
L 65.09375 72.90625 
L 28.90625 38.921875 
L 67.671875 0 
L 54.6875 0 
L 19.671875 35.109375 
L 19.671875 0 
L 9.8125 0 
z
" id="DejaVuSans-4b"/>
     <path d="M 8.203125 72.90625 
L 55.078125 72.90625 
L 55.078125 68.703125 
L 28.609375 0 
L 18.3125 0 
L 43.21875 64.59375 
L 8.203125 64.59375 
z
" id="DejaVuSans-37"/>
     <path d="M 12.40625 8.296875 
L 28.515625 8.296875 
L 28.515625 63.921875 
L 10.984375 60.40625 
L 10.984375 69.390625 
L 28.421875 72.90625 
L 38.28125 72.90625 
L 38.28125 8.296875 
L 54.390625 8.296875 
L 54.390625 0 
L 12.40625 0 
z
" id="DejaVuSans-31"/>
    </defs>
    <g transform="translate(103.262068 55.088366)scale(0.09 -0.09)">
     <use xlink:href="#DejaVuSans-42"/>
     <use x="68.587891" xlink:href="#DejaVuSans-4f"/>
     <use x="147.298828" xlink:href="#DejaVuSans-53"/>
     <use x="210.791016" xlink:href="#DejaVuSans-41"/>
     <use x="279.199219" xlink:href="#DejaVuSans-4b"/>
     <use x="344.775391" xlink:href="#DejaVuSans-3a"/>
     <use x="378.466797" xlink:href="#DejaVuSans-20"/>
     <use x="410.253906" xlink:href="#DejaVuSans-37"/>
     <use x="473.876953" xlink:href="#DejaVuSans-2e"/>
     <use x="505.664062" xlink:href="#DejaVuSans-31"/>
     <use x="569.287109" xlink:href="#DejaVuSans-31"/>
     <use x="632.910156" xlink:href="#DejaVuSans-25"/>
    </g>
   </g>
   <g id="text_4">
    <g id="patch_14">
     <path d="M 81.717412 67.128286 
L 150.000693 67.128286 
L 150.000693 51.217974 
L 81.717412 51.217974 
z
" style="fill:#ffffff;fill-opacity:0.439216;stroke:#ffffff;stroke-linejoin:miter;stroke-opacity:0.439216;"/>
    </g>
    <!-- DUDA: 0.40% -->
    <defs>
     <path d="M 8.6875 72.90625 
L 18.609375 72.90625 
L 18.609375 28.609375 
Q 18.609375 16.890625 22.84375 11.734375 
Q 27.09375 6.59375 36.625 6.59375 
Q 46.09375 6.59375 50.34375 11.734375 
Q 54.59375 16.890625 54.59375 28.609375 
L 54.59375 72.90625 
L 64.5 72.90625 
L 64.5 27.390625 
Q 64.5 13.140625 57.4375 5.859375 
Q 50.390625 -1.421875 36.625 -1.421875 
Q 22.796875 -1.421875 15.734375 5.859375 
Q 8.6875 13.140625 8.6875 27.390625 
z
" id="DejaVuSans-55"/>
    </defs>
    <g transform="translate(85.317412 61.656567)scale(0.09 -0.09)">
     <use xlink:href="#DejaVuSans-44"/>
     <use x="77.001953" xlink:href="#DejaVuSans-55"/>
     <use x="150.195312" xlink:href="#DejaVuSans-44"/>
     <use x="227.181641" xlink:href="#DejaVuSans-41"/>
     <use x="295.574219" xlink:href="#DejaVuSans-3a"/>
     <use x="329.265625" xlink:href="#DejaVuSans-20"/>
     <use x="361.052734" xlink:href="#DejaVuSans-30"/>
     <use x="424.675781" xlink:href="#DejaVuSans-2e"/>
     <use x="456.462891" xlink:href="#DejaVuSans-34"/>
     <use x="520.085938" xlink:href="#DejaVuSans-30"/>
     <use x="583.708984" xlink:href="#DejaVuSans-25"/>
    </g>
   </g>
   <g id="text_5">
    <g id="patch_15">
     <path d="M 27.454359 102.038791 
L 125.301234 102.038791 
L 125.301234 86.128479 
L 27.454359 86.128479 
z
" style="fill:#ffffff;fill-opacity:0.439216;stroke:#ffffff;stroke-linejoin:miter;stroke-opacity:0.439216;"/>
    </g>
    <!-- HOŁOWNIA: 18.97% -->
    <defs>
     <path d="M 9.8125 72.90625 
L 19.671875 72.90625 
L 19.671875 43.015625 
L 55.515625 43.015625 
L 55.515625 72.90625 
L 65.375 72.90625 
L 65.375 0 
L 55.515625 0 
L 55.515625 34.71875 
L 19.671875 34.71875 
L 19.671875 0 
L 9.8125 0 
z
" id="DejaVuSans-48"/>
     <path d="M 10.296875 72.90625 
L 20.21875 72.90625 
L 20.21875 42.828125 
L 35.5 53.515625 
L 39.40625 48.09375 
L 20.21875 34.71875 
L 20.21875 8.296875 
L 55.71875 8.296875 
L 55.71875 0 
L 10.296875 0 
L 10.296875 27.875 
L 3.078125 22.703125 
L -0.6875 28.078125 
L 10.296875 35.796875 
z
" id="DejaVuSans-141"/>
     <path d="M 3.328125 72.90625 
L 13.28125 72.90625 
L 28.609375 11.28125 
L 43.890625 72.90625 
L 54.984375 72.90625 
L 70.3125 11.28125 
L 85.59375 72.90625 
L 95.609375 72.90625 
L 77.296875 0 
L 64.890625 0 
L 49.515625 63.28125 
L 33.984375 0 
L 21.578125 0 
z
" id="DejaVuSans-57"/>
     <path d="M 9.8125 72.90625 
L 23.09375 72.90625 
L 55.421875 11.921875 
L 55.421875 72.90625 
L 64.984375 72.90625 
L 64.984375 0 
L 51.703125 0 
L 19.390625 60.984375 
L 19.390625 0 
L 9.8125 0 
z
" id="DejaVuSans-4e"/>
     <path d="M 31.78125 34.625 
Q 24.75 34.625 20.71875 30.859375 
Q 16.703125 27.09375 16.703125 20.515625 
Q 16.703125 13.921875 20.71875 10.15625 
Q 24.75 6.390625 31.78125 6.390625 
Q 38.8125 6.390625 42.859375 10.171875 
Q 46.921875 13.96875 46.921875 20.515625 
Q 46.921875 27.09375 42.890625 30.859375 
Q 38.875 34.625 31.78125 34.625 
z
M 21.921875 38.8125 
Q 15.578125 40.375 12.03125 44.71875 
Q 8.5 49.078125 8.5 55.328125 
Q 8.5 64.0625 14.71875 69.140625 
Q 20.953125 74.21875 31.78125 74.21875 
Q 42.671875 74.21875 48.875 69.140625 
Q 55.078125 64.0625 55.078125 55.328125 
Q 55.078125 49.078125 51.53125 44.71875 
Q 48 40.375 41.703125 38.8125 
Q 48.828125 37.15625 52.796875 32.3125 
Q 56.78125 27.484375 56.78125 20.515625 
Q 56.78125 9.90625 50.3125 4.234375 
Q 43.84375 -1.421875 31.78125 -1.421875 
Q 19.734375 -1.421875 13.25 4.234375 
Q 6.78125 9.90625 6.78125 20.515625 
Q 6.78125 27.484375 10.78125 32.3125 
Q 14.796875 37.15625 21.921875 38.8125 
z
M 18.3125 54.390625 
Q 18.3125 48.734375 21.84375 45.5625 
Q 25.390625 42.390625 31.78125 42.390625 
Q 38.140625 42.390625 41.71875 45.5625 
Q 45.3125 48.734375 45.3125 54.390625 
Q 45.3125 60.0625 41.71875 63.234375 
Q 38.140625 66.40625 31.78125 66.40625 
Q 25.390625 66.40625 21.84375 63.234375 
Q 18.3125 60.0625 18.3125 54.390625 
z
" id="DejaVuSans-38"/>
    </defs>
    <g transform="translate(31.054359 96.567073)scale(0.09 -0.09)">
     <use xlink:href="#DejaVuSans-48"/>
     <use x="75.195312" xlink:href="#DejaVuSans-4f"/>
     <use x="153.90625" xlink:href="#DejaVuSans-141"/>
     <use x="210.107422" xlink:href="#DejaVuSans-4f"/>
     <use x="288.818359" xlink:href="#DejaVuSans-57"/>
     <use x="387.695312" xlink:href="#DejaVuSans-4e"/>
     <use x="462.5" xlink:href="#DejaVuSans-49"/>
     <use x="491.992188" xlink:href="#DejaVuSans-41"/>
     <use x="560.384766" xlink:href="#DejaVuSans-3a"/>
     <use x="594.076172" xlink:href="#DejaVuSans-20"/>
     <use x="625.863281" xlink:href="#DejaVuSans-31"/>
     <use x="689.486328" xlink:href="#DejaVuSans-38"/>
     <use x="753.109375" xlink:href="#DejaVuSans-2e"/>
     <use x="784.896484" xlink:href="#DejaVuSans-39"/>
     <use x="848.519531" xlink:href="#DejaVuSans-37"/>
     <use x="912.142578" xlink:href="#DejaVuSans-25"/>
    </g>
   </g>
   <g id="text_6">
    <g id="patch_16">
     <path d="M 3.6 157.006221 
L 128.50875 157.006221 
L 128.50875 141.095908 
L 3.6 141.095908 
z
" style="fill:#ffffff;fill-opacity:0.439216;stroke:#ffffff;stroke-linejoin:miter;stroke-opacity:0.439216;"/>
    </g>
    <!-- KOSINIAK-KAMYSZ: 2.37% -->
    <defs>
     <path d="M 4.890625 31.390625 
L 31.203125 31.390625 
L 31.203125 23.390625 
L 4.890625 23.390625 
z
" id="DejaVuSans-2d"/>
     <path d="M 9.8125 72.90625 
L 24.515625 72.90625 
L 43.109375 23.296875 
L 61.8125 72.90625 
L 76.515625 72.90625 
L 76.515625 0 
L 66.890625 0 
L 66.890625 64.015625 
L 48.09375 14.015625 
L 38.1875 14.015625 
L 19.390625 64.015625 
L 19.390625 0 
L 9.8125 0 
z
" id="DejaVuSans-4d"/>
     <path d="M -0.203125 72.90625 
L 10.40625 72.90625 
L 30.609375 42.921875 
L 50.6875 72.90625 
L 61.28125 72.90625 
L 35.5 34.71875 
L 35.5 0 
L 25.59375 0 
L 25.59375 34.71875 
z
" id="DejaVuSans-59"/>
     <path d="M 5.609375 72.90625 
L 62.890625 72.90625 
L 62.890625 65.375 
L 16.796875 8.296875 
L 64.015625 8.296875 
L 64.015625 0 
L 4.5 0 
L 4.5 7.515625 
L 50.59375 64.59375 
L 5.609375 64.59375 
z
" id="DejaVuSans-5a"/>
     <path d="M 40.578125 39.3125 
Q 47.65625 37.796875 51.625 33 
Q 55.609375 28.21875 55.609375 21.1875 
Q 55.609375 10.40625 48.1875 4.484375 
Q 40.765625 -1.421875 27.09375 -1.421875 
Q 22.515625 -1.421875 17.65625 -0.515625 
Q 12.796875 0.390625 7.625 2.203125 
L 7.625 11.71875 
Q 11.71875 9.328125 16.59375 8.109375 
Q 21.484375 6.890625 26.8125 6.890625 
Q 36.078125 6.890625 40.9375 10.546875 
Q 45.796875 14.203125 45.796875 21.1875 
Q 45.796875 27.640625 41.28125 31.265625 
Q 36.765625 34.90625 28.71875 34.90625 
L 20.21875 34.90625 
L 20.21875 43.015625 
L 29.109375 43.015625 
Q 36.375 43.015625 40.234375 45.921875 
Q 44.09375 48.828125 44.09375 54.296875 
Q 44.09375 59.90625 40.109375 62.90625 
Q 36.140625 65.921875 28.71875 65.921875 
Q 24.65625 65.921875 20.015625 65.03125 
Q 15.375 64.15625 9.8125 62.3125 
L 9.8125 71.09375 
Q 15.4375 72.65625 20.34375 73.4375 
Q 25.25 74.21875 29.59375 74.21875 
Q 40.828125 74.21875 47.359375 69.109375 
Q 53.90625 64.015625 53.90625 55.328125 
Q 53.90625 49.265625 50.4375 45.09375 
Q 46.96875 40.921875 40.578125 39.3125 
z
" id="DejaVuSans-33"/>
    </defs>
    <g transform="translate(7.2 151.534502)scale(0.09 -0.09)">
     <use xlink:href="#DejaVuSans-4b"/>
     <use x="65.498047" xlink:href="#DejaVuSans-4f"/>
     <use x="144.208984" xlink:href="#DejaVuSans-53"/>
     <use x="207.685547" xlink:href="#DejaVuSans-49"/>
     <use x="237.177734" xlink:href="#DejaVuSans-4e"/>
     <use x="311.982422" xlink:href="#DejaVuSans-49"/>
     <use x="341.474609" xlink:href="#DejaVuSans-41"/>
     <use x="409.882812" xlink:href="#DejaVuSans-4b"/>
     <use x="475.302734" xlink:href="#DejaVuSans-2d"/>
     <use x="511.386719" xlink:href="#DejaVuSans-4b"/>
     <use x="576.947266" xlink:href="#DejaVuSans-41"/>
     <use x="645.355469" xlink:href="#DejaVuSans-4d"/>
     <use x="731.634766" xlink:href="#DejaVuSans-59"/>
     <use x="792.71875" xlink:href="#DejaVuSans-53"/>
     <use x="856.195312" xlink:href="#DejaVuSans-5a"/>
     <use x="924.701172" xlink:href="#DejaVuSans-3a"/>
     <use x="958.392578" xlink:href="#DejaVuSans-20"/>
     <use x="990.179688" xlink:href="#DejaVuSans-32"/>
     <use x="1053.802734" xlink:href="#DejaVuSans-2e"/>
     <use x="1085.589844" xlink:href="#DejaVuSans-33"/>
     <use x="1149.212891" xlink:href="#DejaVuSans-37"/>
     <use x="1212.835938" xlink:href="#DejaVuSans-25"/>
    </g>
   </g>
   <g id="text_7">
    <g id="patch_17">
     <path d="M 26.314094 164.221542 
L 109.001594 164.221542 
L 109.001594 148.311229 
L 26.314094 148.311229 
z
" style="fill:#ffffff;fill-opacity:0.439216;stroke:#ffffff;stroke-linejoin:miter;stroke-opacity:0.439216;"/>
    </g>
    <!-- TANAJNO: 0.40% -->
    <defs>
     <path d="M -0.296875 72.90625 
L 61.375 72.90625 
L 61.375 64.59375 
L 35.5 64.59375 
L 35.5 0 
L 25.59375 0 
L 25.59375 64.59375 
L -0.296875 64.59375 
z
" id="DejaVuSans-54"/>
     <path d="M 9.8125 72.90625 
L 19.671875 72.90625 
L 19.671875 5.078125 
Q 19.671875 -8.109375 14.671875 -14.0625 
Q 9.671875 -20.015625 -1.421875 -20.015625 
L -5.171875 -20.015625 
L -5.171875 -11.71875 
L -2.09375 -11.71875 
Q 4.4375 -11.71875 7.125 -8.046875 
Q 9.8125 -4.390625 9.8125 5.078125 
z
" id="DejaVuSans-4a"/>
    </defs>
    <g transform="translate(29.914094 158.749823)scale(0.09 -0.09)">
     <use xlink:href="#DejaVuSans-54"/>
     <use x="60.974609" xlink:href="#DejaVuSans-41"/>
     <use x="129.382812" xlink:href="#DejaVuSans-4e"/>
     <use x="204.1875" xlink:href="#DejaVuSans-41"/>
     <use x="272.595703" xlink:href="#DejaVuSans-4a"/>
     <use x="302.087891" xlink:href="#DejaVuSans-4e"/>
     <use x="376.892578" xlink:href="#DejaVuSans-4f"/>
     <use x="455.587891" xlink:href="#DejaVuSans-3a"/>
     <use x="489.279297" xlink:href="#DejaVuSans-20"/>
     <use x="521.066406" xlink:href="#DejaVuSans-30"/>
     <use x="584.689453" xlink:href="#DejaVuSans-2e"/>
     <use x="616.476562" xlink:href="#DejaVuSans-34"/>
     <use x="680.099609" xlink:href="#DejaVuSans-30"/>
     <use x="743.722656" xlink:href="#DejaVuSans-25"/>
    </g>
   </g>
   <g id="text_8">
    <g id="patch_18">
     <path d="M 83.76868 226.995914 
L 197.11243 226.995914 
L 197.11243 211.085602 
L 83.76868 211.085602 
z
" style="fill:#ffffff;fill-opacity:0.439216;stroke:#ffffff;stroke-linejoin:miter;stroke-opacity:0.439216;"/>
    </g>
    <!-- TRZASKOWSKI: 36.36% -->
    <defs>
     <path d="M 33.015625 40.375 
Q 26.375 40.375 22.484375 35.828125 
Q 18.609375 31.296875 18.609375 23.390625 
Q 18.609375 15.53125 22.484375 10.953125 
Q 26.375 6.390625 33.015625 6.390625 
Q 39.65625 6.390625 43.53125 10.953125 
Q 47.40625 15.53125 47.40625 23.390625 
Q 47.40625 31.296875 43.53125 35.828125 
Q 39.65625 40.375 33.015625 40.375 
z
M 52.59375 71.296875 
L 52.59375 62.3125 
Q 48.875 64.0625 45.09375 64.984375 
Q 41.3125 65.921875 37.59375 65.921875 
Q 27.828125 65.921875 22.671875 59.328125 
Q 17.53125 52.734375 16.796875 39.40625 
Q 19.671875 43.65625 24.015625 45.921875 
Q 28.375 48.1875 33.59375 48.1875 
Q 44.578125 48.1875 50.953125 41.515625 
Q 57.328125 34.859375 57.328125 23.390625 
Q 57.328125 12.15625 50.6875 5.359375 
Q 44.046875 -1.421875 33.015625 -1.421875 
Q 20.359375 -1.421875 13.671875 8.265625 
Q 6.984375 17.96875 6.984375 36.375 
Q 6.984375 53.65625 15.1875 63.9375 
Q 23.390625 74.21875 37.203125 74.21875 
Q 40.921875 74.21875 44.703125 73.484375 
Q 48.484375 72.75 52.59375 71.296875 
z
" id="DejaVuSans-36"/>
    </defs>
    <g transform="translate(87.36868 221.524196)scale(0.09 -0.09)">
     <use xlink:href="#DejaVuSans-54"/>
     <use x="61.083984" xlink:href="#DejaVuSans-52"/>
     <use x="130.566406" xlink:href="#DejaVuSans-5a"/>
     <use x="199.072266" xlink:href="#DejaVuSans-41"/>
     <use x="267.480469" xlink:href="#DejaVuSans-53"/>
     <use x="330.957031" xlink:href="#DejaVuSans-4b"/>
     <use x="396.455078" xlink:href="#DejaVuSans-4f"/>
     <use x="475.166016" xlink:href="#DejaVuSans-57"/>
     <use x="574.042969" xlink:href="#DejaVuSans-53"/>
     <use x="637.519531" xlink:href="#DejaVuSans-4b"/>
     <use x="703.095703" xlink:href="#DejaVuSans-49"/>
     <use x="732.587891" xlink:href="#DejaVuSans-3a"/>
     <use x="766.279297" xlink:href="#DejaVuSans-20"/>
     <use x="798.066406" xlink:href="#DejaVuSans-33"/>
     <use x="861.689453" xlink:href="#DejaVuSans-36"/>
     <use x="925.3125" xlink:href="#DejaVuSans-2e"/>
     <use x="957.099609" xlink:href="#DejaVuSans-33"/>
     <use x="1020.722656" xlink:href="#DejaVuSans-36"/>
     <use x="1084.345703" xlink:href="#DejaVuSans-25"/>
    </g>
   </g>
   <g id="text_9">
    <g id="patch_19">
     <path d="M 188.919654 181.924817 
L 283.802154 181.924817 
L 283.802154 166.014505 
L 188.919654 166.014505 
z
" style="fill:#ffffff;fill-opacity:0.439216;stroke:#ffffff;stroke-linejoin:miter;stroke-opacity:0.439216;"/>
    </g>
    <!-- WITKOWSKI: 3.95% -->
    <defs>
     <path d="M 10.796875 72.90625 
L 49.515625 72.90625 
L 49.515625 64.59375 
L 19.828125 64.59375 
L 19.828125 46.734375 
Q 21.96875 47.46875 24.109375 47.828125 
Q 26.265625 48.1875 28.421875 48.1875 
Q 40.625 48.1875 47.75 41.5 
Q 54.890625 34.8125 54.890625 23.390625 
Q 54.890625 11.625 47.5625 5.09375 
Q 40.234375 -1.421875 26.90625 -1.421875 
Q 22.3125 -1.421875 17.546875 -0.640625 
Q 12.796875 0.140625 7.71875 1.703125 
L 7.71875 11.625 
Q 12.109375 9.234375 16.796875 8.0625 
Q 21.484375 6.890625 26.703125 6.890625 
Q 35.15625 6.890625 40.078125 11.328125 
Q 45.015625 15.765625 45.015625 23.390625 
Q 45.015625 31 40.078125 35.4375 
Q 35.15625 39.890625 26.703125 39.890625 
Q 22.75 39.890625 18.8125 39.015625 
Q 14.890625 38.140625 10.796875 36.28125 
z
" id="DejaVuSans-35"/>
    </defs>
    <g transform="translate(192.519654 176.453098)scale(0.09 -0.09)">
     <use xlink:href="#DejaVuSans-57"/>
     <use x="98.876953" xlink:href="#DejaVuSans-49"/>
     <use x="128.369141" xlink:href="#DejaVuSans-54"/>
     <use x="189.453125" xlink:href="#DejaVuSans-4b"/>
     <use x="254.951172" xlink:href="#DejaVuSans-4f"/>
     <use x="333.662109" xlink:href="#DejaVuSans-57"/>
     <use x="432.539062" xlink:href="#DejaVuSans-53"/>
     <use x="496.015625" xlink:href="#DejaVuSans-4b"/>
     <use x="561.591797" xlink:href="#DejaVuSans-49"/>
     <use x="591.083984" xlink:href="#DejaVuSans-3a"/>
     <use x="624.775391" xlink:href="#DejaVuSans-20"/>
     <use x="656.5625" xlink:href="#DejaVuSans-33"/>
     <use x="720.185547" xlink:href="#DejaVuSans-2e"/>
     <use x="751.972656" xlink:href="#DejaVuSans-39"/>
     <use x="815.595703" xlink:href="#DejaVuSans-35"/>
     <use x="879.21875" xlink:href="#DejaVuSans-25"/>
    </g>
   </g>
   <g id="text_10">
    <g id="patch_20">
     <path d="M 203.398451 169.282112 
L 280.475013 169.282112 
L 280.475013 153.371799 
L 203.398451 153.371799 
z
" style="fill:#ffffff;fill-opacity:0.439216;stroke:#ffffff;stroke-linejoin:miter;stroke-opacity:0.439216;"/>
    </g>
    <!-- ŻÓŁTEK: 1.19% -->
    <defs>
     <path d="M 29.265625 91.1875 
L 39.234375 91.1875 
L 39.234375 81.1875 
L 29.265625 81.1875 
z
M 5.609375 72.90625 
L 62.890625 72.90625 
L 62.890625 65.375 
L 16.796875 8.296875 
L 64.015625 8.296875 
L 64.015625 0 
L 4.5 0 
L 4.5 7.515625 
L 50.59375 64.59375 
L 5.609375 64.59375 
z
" id="DejaVuSans-17b"/>
     <path d="M 39.40625 66.21875 
Q 28.65625 66.21875 22.328125 58.203125 
Q 16.015625 50.203125 16.015625 36.375 
Q 16.015625 22.609375 22.328125 14.59375 
Q 28.65625 6.59375 39.40625 6.59375 
Q 50.140625 6.59375 56.421875 14.59375 
Q 62.703125 22.609375 62.703125 36.375 
Q 62.703125 50.203125 56.421875 58.203125 
Q 50.140625 66.21875 39.40625 66.21875 
z
M 39.40625 74.21875 
Q 54.734375 74.21875 63.90625 63.9375 
Q 73.09375 53.65625 73.09375 36.375 
Q 73.09375 19.140625 63.90625 8.859375 
Q 54.734375 -1.421875 39.40625 -1.421875 
Q 24.03125 -1.421875 14.8125 8.828125 
Q 5.609375 19.09375 5.609375 36.375 
Q 5.609375 53.65625 14.8125 63.9375 
Q 24.03125 74.21875 39.40625 74.21875 
z
M 42.0625 92.515625 
L 51.09375 92.515625 
L 39.96875 79.625 
L 32.484375 79.625 
z
" id="DejaVuSans-d3"/>
    </defs>
    <g transform="translate(206.998451 163.810393)scale(0.09 -0.09)">
     <use xlink:href="#DejaVuSans-17b"/>
     <use x="68.505859" xlink:href="#DejaVuSans-d3"/>
     <use x="147.216797" xlink:href="#DejaVuSans-141"/>
     <use x="203.417969" xlink:href="#DejaVuSans-54"/>
     <use x="264.501953" xlink:href="#DejaVuSans-45"/>
     <use x="327.685547" xlink:href="#DejaVuSans-4b"/>
     <use x="393.261719" xlink:href="#DejaVuSans-3a"/>
     <use x="426.953125" xlink:href="#DejaVuSans-20"/>
     <use x="458.740234" xlink:href="#DejaVuSans-31"/>
     <use x="522.363281" xlink:href="#DejaVuSans-2e"/>
     <use x="554.150391" xlink:href="#DejaVuSans-31"/>
     <use x="617.773438" xlink:href="#DejaVuSans-39"/>
     <use x="681.396484" xlink:href="#DejaVuSans-25"/>
    </g>
   </g>
   <g id="text_11">
    <g id="patch_21">
     <path d="M 214.204983 154.923395 
L 276.649514 154.923395 
L 276.649514 139.013082 
L 214.204983 139.013082 
z
" style="fill:#ffffff;fill-opacity:0.439216;stroke:#ffffff;stroke-linejoin:miter;stroke-opacity:0.439216;"/>
    </g>
    <!-- NIKT: 4.35% -->
    <g transform="translate(217.804983 149.451676)scale(0.09 -0.09)">
     <use xlink:href="#DejaVuSans-4e"/>
     <use x="74.804688" xlink:href="#DejaVuSans-49"/>
     <use x="104.296875" xlink:href="#DejaVuSans-4b"/>
     <use x="169.763672" xlink:href="#DejaVuSans-54"/>
     <use x="230.675781" xlink:href="#DejaVuSans-3a"/>
     <use x="264.367188" xlink:href="#DejaVuSans-20"/>
     <use x="296.154297" xlink:href="#DejaVuSans-34"/>
     <use x="359.777344" xlink:href="#DejaVuSans-2e"/>
     <use x="391.564453" xlink:href="#DejaVuSans-33"/>
     <use x="455.1875" xlink:href="#DejaVuSans-35"/>
     <use x="518.810547" xlink:href="#DejaVuSans-25"/>
    </g>
   </g>
  </g>
  <g id="axes_2">
   <g id="patch_22">
    <path d="M 544.877618 135.42 
C 544.877618 120.281837 541.193224 105.340328 534.104338 91.730577 
C 527.015452 78.120826 516.706252 66.196431 503.959926 56.863287 
C 491.213601 47.530142 476.361315 41.030735 460.531395 37.858823 
C 444.701474 34.686912 428.3052 34.924906 412.588195 38.554726 
L 438.173618 135.42 
L 544.877618 135.42 
z
" style="fill:#1b1462;"/>
   </g>
   <g id="patch_23">
    <path d="M 412.588195 38.554726 
C 403.571155 40.637199 394.883367 43.811671 386.745347 47.997569 
C 378.607327 52.183466 371.088515 57.345071 364.379757 63.351369 
L 438.173618 135.42 
L 412.588195 38.554726 
z
" style="fill:#d62728;"/>
   </g>
   <g id="patch_24">
    <path d="M 364.379757 63.351369 
C 363.422689 64.208224 362.482772 65.081675 361.560496 65.971266 
C 360.638221 66.860857 359.733745 67.766434 358.847541 68.687527 
L 438.173618 135.42 
L 364.379757 63.351369 
z
" style="fill:#2ca02c;"/>
   </g>
   <g id="patch_25">
    <path d="M 358.847541 68.687527 
C 345.469011 82.592749 336.537843 99.739448 333.077933 118.161875 
C 329.618024 136.584302 331.766843 155.550485 339.278046 172.886082 
L 438.173618 135.42 
L 358.847541 68.687527 
z
" style="fill:#f9c013;"/>
   </g>
   <g id="patch_26">
    <path d="M 339.278046 172.886082 
C 340.273228 175.182927 341.359578 177.444306 342.534836 179.665513 
C 343.710095 181.88672 344.973446 184.066212 346.32226 186.199456 
L 438.173618 135.42 
L 339.278046 172.886082 
z
" style="fill:#9467bd;"/>
   </g>
   <g id="patch_27">
    <path d="M 346.32226 186.199456 
C 346.547037 186.554957 346.774173 186.909149 347.003653 187.262013 
C 347.233134 187.614876 347.464955 187.966404 347.699104 188.316576 
L 438.173618 135.42 
L 346.32226 186.199456 
z
" style="fill:#e377c2;"/>
   </g>
   <g id="patch_28">
    <path d="M 347.699104 188.316576 
C 355.926393 200.620573 366.926061 211.099446 379.928878 219.020385 
C 392.931696 226.941324 407.627323 232.11528 422.988062 234.180425 
C 438.348802 236.245571 454.008039 235.152617 468.870688 230.977998 
C 483.733337 226.803379 497.44467 219.646729 509.045825 210.00853 
L 438.173618 135.42 
L 347.699104 188.316576 
z
" style="fill:#ff7f0e;"/>
   </g>
   <g id="patch_29">
    <path d="M 509.045825 210.00853 
C 515.657655 204.515444 521.513514 198.274915 526.478527 191.430675 
C 531.44354 184.586434 535.479295 177.191436 538.492839 169.416004 
L 438.173618 135.42 
L 509.045825 210.00853 
z
" style="fill:#17becf;"/>
   </g>
   <g id="patch_30">
    <path d="M 538.492839 169.416004 
C 539.546393 166.697662 540.473086 163.937783 541.270292 161.144181 
C 542.067498 158.350579 542.734465 155.525894 543.269303 152.678125 
L 438.173618 135.42 
L 538.492839 169.416004 
z
" style="fill:#bcbd22;"/>
   </g>
   <g id="patch_31">
    <path d="M 543.269303 152.678125 
C 543.804142 149.830356 544.206347 146.962194 544.47478 144.08176 
C 544.743212 141.201326 544.877619 138.311343 544.877618 135.419994 
L 438.173618 135.42 
L 543.269303 152.678125 
z
" style="fill:#aeaeae;"/>
   </g>
   <g id="matplotlib.axis_3">
    <g id="text_12">
     <!-- Pierwszy wybór w PGP -->
     <defs>
      <path d="M 19.671875 64.796875 
L 19.671875 37.40625 
L 32.078125 37.40625 
Q 38.96875 37.40625 42.71875 40.96875 
Q 46.484375 44.53125 46.484375 51.125 
Q 46.484375 57.671875 42.71875 61.234375 
Q 38.96875 64.796875 32.078125 64.796875 
z
M 9.8125 72.90625 
L 32.078125 72.90625 
Q 44.34375 72.90625 50.609375 67.359375 
Q 56.890625 61.8125 56.890625 51.125 
Q 56.890625 40.328125 50.609375 34.8125 
Q 44.34375 29.296875 32.078125 29.296875 
L 19.671875 29.296875 
L 19.671875 0 
L 9.8125 0 
z
" id="DejaVuSans-50"/>
      <path d="M 5.515625 54.6875 
L 48.1875 54.6875 
L 48.1875 46.484375 
L 14.40625 7.171875 
L 48.1875 7.171875 
L 48.1875 0 
L 4.296875 0 
L 4.296875 8.203125 
L 38.09375 47.515625 
L 5.515625 47.515625 
z
" id="DejaVuSans-7a"/>
      <path d="M 48.6875 27.296875 
Q 48.6875 37.203125 44.609375 42.84375 
Q 40.53125 48.484375 33.40625 48.484375 
Q 26.265625 48.484375 22.1875 42.84375 
Q 18.109375 37.203125 18.109375 27.296875 
Q 18.109375 17.390625 22.1875 11.75 
Q 26.265625 6.109375 33.40625 6.109375 
Q 40.53125 6.109375 44.609375 11.75 
Q 48.6875 17.390625 48.6875 27.296875 
z
M 18.109375 46.390625 
Q 20.953125 51.265625 25.265625 53.625 
Q 29.59375 56 35.59375 56 
Q 45.5625 56 51.78125 48.09375 
Q 58.015625 40.1875 58.015625 27.296875 
Q 58.015625 14.40625 51.78125 6.484375 
Q 45.5625 -1.421875 35.59375 -1.421875 
Q 29.59375 -1.421875 25.265625 0.953125 
Q 20.953125 3.328125 18.109375 8.203125 
L 18.109375 0 
L 9.078125 0 
L 9.078125 75.984375 
L 18.109375 75.984375 
z
" id="DejaVuSans-62"/>
      <path d="M 30.609375 48.390625 
Q 23.390625 48.390625 19.1875 42.75 
Q 14.984375 37.109375 14.984375 27.296875 
Q 14.984375 17.484375 19.15625 11.84375 
Q 23.34375 6.203125 30.609375 6.203125 
Q 37.796875 6.203125 41.984375 11.859375 
Q 46.1875 17.53125 46.1875 27.296875 
Q 46.1875 37.015625 41.984375 42.703125 
Q 37.796875 48.390625 30.609375 48.390625 
z
M 30.609375 56 
Q 42.328125 56 49.015625 48.375 
Q 55.71875 40.765625 55.71875 27.296875 
Q 55.71875 13.875 49.015625 6.21875 
Q 42.328125 -1.421875 30.609375 -1.421875 
Q 18.84375 -1.421875 12.171875 6.21875 
Q 5.515625 13.875 5.515625 27.296875 
Q 5.515625 40.765625 12.171875 48.375 
Q 18.84375 56 30.609375 56 
z
M 37.40625 79.984375 
L 47.125 79.984375 
L 31.21875 61.625 
L 23.734375 61.625 
z
" id="DejaVuSans-f3"/>
     </defs>
     <g transform="translate(382.264243 272.138437)scale(0.1 -0.1)">
      <use xlink:href="#DejaVuSans-50"/>
      <use x="60.271484" xlink:href="#DejaVuSans-69"/>
      <use x="88.054688" xlink:href="#DejaVuSans-65"/>
      <use x="149.578125" xlink:href="#DejaVuSans-72"/>
      <use x="190.691406" xlink:href="#DejaVuSans-77"/>
      <use x="272.478516" xlink:href="#DejaVuSans-73"/>
      <use x="324.578125" xlink:href="#DejaVuSans-7a"/>
      <use x="377.068359" xlink:href="#DejaVuSans-79"/>
      <use x="436.248047" xlink:href="#DejaVuSans-20"/>
      <use x="468.035156" xlink:href="#DejaVuSans-77"/>
      <use x="549.822266" xlink:href="#DejaVuSans-79"/>
      <use x="609.001953" xlink:href="#DejaVuSans-62"/>
      <use x="672.478516" xlink:href="#DejaVuSans-f3"/>
      <use x="733.660156" xlink:href="#DejaVuSans-72"/>
      <use x="774.773438" xlink:href="#DejaVuSans-20"/>
      <use x="806.560547" xlink:href="#DejaVuSans-77"/>
      <use x="888.347656" xlink:href="#DejaVuSans-20"/>
      <use x="920.134766" xlink:href="#DejaVuSans-50"/>
      <use x="980.4375" xlink:href="#DejaVuSans-47"/>
      <use x="1057.927734" xlink:href="#DejaVuSans-50"/>
     </g>
    </g>
   </g>
   <g id="matplotlib.axis_4"/>
   <g id="text_13">
    <g id="patch_32">
     <path d="M 449.628464 76.60195 
L 538.555496 76.60195 
L 538.555496 60.691638 
L 449.628464 60.691638 
z
" style="fill:#ffffff;fill-opacity:0.439216;stroke:#ffffff;stroke-linejoin:miter;stroke-opacity:0.439216;"/>
    </g>
    <!-- BIEDROŃ: 28.85% -->
    <g transform="translate(453.228464 71.130231)scale(0.09 -0.09)">
     <use xlink:href="#DejaVuSans-42"/>
     <use x="68.603516" xlink:href="#DejaVuSans-49"/>
     <use x="98.095703" xlink:href="#DejaVuSans-45"/>
     <use x="161.279297" xlink:href="#DejaVuSans-44"/>
     <use x="238.28125" xlink:href="#DejaVuSans-52"/>
     <use x="307.763672" xlink:href="#DejaVuSans-4f"/>
     <use x="386.474609" xlink:href="#DejaVuSans-143"/>
     <use x="461.279297" xlink:href="#DejaVuSans-3a"/>
     <use x="494.970703" xlink:href="#DejaVuSans-20"/>
     <use x="526.757812" xlink:href="#DejaVuSans-32"/>
     <use x="590.380859" xlink:href="#DejaVuSans-38"/>
     <use x="654.003906" xlink:href="#DejaVuSans-2e"/>
     <use x="685.791016" xlink:href="#DejaVuSans-38"/>
     <use x="749.414062" xlink:href="#DejaVuSans-35"/>
     <use x="813.037109" xlink:href="#DejaVuSans-25"/>
    </g>
   </g>
   <g id="text_14">
    <g id="patch_33">
     <path d="M 358.1024 69.06609 
L 430.816775 69.06609 
L 430.816775 53.155777 
L 358.1024 53.155777 
z
" style="fill:#ffffff;fill-opacity:0.439216;stroke:#ffffff;stroke-linejoin:miter;stroke-opacity:0.439216;"/>
    </g>
    <!-- BOSAK: 8.30% -->
    <g transform="translate(361.7024 63.594371)scale(0.09 -0.09)">
     <use xlink:href="#DejaVuSans-42"/>
     <use x="68.587891" xlink:href="#DejaVuSans-4f"/>
     <use x="147.298828" xlink:href="#DejaVuSans-53"/>
     <use x="210.791016" xlink:href="#DejaVuSans-41"/>
     <use x="279.199219" xlink:href="#DejaVuSans-4b"/>
     <use x="344.775391" xlink:href="#DejaVuSans-3a"/>
     <use x="378.466797" xlink:href="#DejaVuSans-20"/>
     <use x="410.253906" xlink:href="#DejaVuSans-38"/>
     <use x="473.876953" xlink:href="#DejaVuSans-2e"/>
     <use x="505.664062" xlink:href="#DejaVuSans-33"/>
     <use x="569.287109" xlink:href="#DejaVuSans-30"/>
     <use x="632.910156" xlink:href="#DejaVuSans-25"/>
    </g>
   </g>
   <g id="text_15">
    <g id="patch_34">
     <path d="M 338.910824 84.343732 
L 407.194105 84.343732 
L 407.194105 68.43342 
L 338.910824 68.43342 
z
" style="fill:#ffffff;fill-opacity:0.439216;stroke:#ffffff;stroke-linejoin:miter;stroke-opacity:0.439216;"/>
    </g>
    <!-- DUDA: 1.19% -->
    <g transform="translate(342.510824 78.872013)scale(0.09 -0.09)">
     <use xlink:href="#DejaVuSans-44"/>
     <use x="77.001953" xlink:href="#DejaVuSans-55"/>
     <use x="150.195312" xlink:href="#DejaVuSans-44"/>
     <use x="227.181641" xlink:href="#DejaVuSans-41"/>
     <use x="295.574219" xlink:href="#DejaVuSans-3a"/>
     <use x="329.265625" xlink:href="#DejaVuSans-20"/>
     <use x="361.052734" xlink:href="#DejaVuSans-31"/>
     <use x="424.675781" xlink:href="#DejaVuSans-2e"/>
     <use x="456.462891" xlink:href="#DejaVuSans-31"/>
     <use x="520.085938" xlink:href="#DejaVuSans-39"/>
     <use x="583.708984" xlink:href="#DejaVuSans-25"/>
    </g>
   </g>
   <g id="text_16">
    <g id="patch_35">
     <path d="M 299.918849 128.70575 
L 397.765724 128.70575 
L 397.765724 112.795438 
L 299.918849 112.795438 
z
" style="fill:#ffffff;fill-opacity:0.439216;stroke:#ffffff;stroke-linejoin:miter;stroke-opacity:0.439216;"/>
    </g>
    <!-- HOŁOWNIA: 17.79% -->
    <g transform="translate(303.518849 123.234032)scale(0.09 -0.09)">
     <use xlink:href="#DejaVuSans-48"/>
     <use x="75.195312" xlink:href="#DejaVuSans-4f"/>
     <use x="153.90625" xlink:href="#DejaVuSans-141"/>
     <use x="210.107422" xlink:href="#DejaVuSans-4f"/>
     <use x="288.818359" xlink:href="#DejaVuSans-57"/>
     <use x="387.695312" xlink:href="#DejaVuSans-4e"/>
     <use x="462.5" xlink:href="#DejaVuSans-49"/>
     <use x="491.992188" xlink:href="#DejaVuSans-41"/>
     <use x="560.384766" xlink:href="#DejaVuSans-3a"/>
     <use x="594.076172" xlink:href="#DejaVuSans-20"/>
     <use x="625.863281" xlink:href="#DejaVuSans-31"/>
     <use x="689.486328" xlink:href="#DejaVuSans-37"/>
     <use x="753.109375" xlink:href="#DejaVuSans-2e"/>
     <use x="784.896484" xlink:href="#DejaVuSans-37"/>
     <use x="848.519531" xlink:href="#DejaVuSans-39"/>
     <use x="912.142578" xlink:href="#DejaVuSans-25"/>
    </g>
   </g>
   <g id="text_17">
    <g id="patch_36">
     <path d="M 294.426279 180.983842 
L 419.335029 180.983842 
L 419.335029 165.07353 
L 294.426279 165.07353 
z
" style="fill:#ffffff;fill-opacity:0.439216;stroke:#ffffff;stroke-linejoin:miter;stroke-opacity:0.439216;"/>
    </g>
    <!-- KOSINIAK-KAMYSZ: 2.37% -->
    <g transform="translate(298.026279 175.512123)scale(0.09 -0.09)">
     <use xlink:href="#DejaVuSans-4b"/>
     <use x="65.498047" xlink:href="#DejaVuSans-4f"/>
     <use x="144.208984" xlink:href="#DejaVuSans-53"/>
     <use x="207.685547" xlink:href="#DejaVuSans-49"/>
     <use x="237.177734" xlink:href="#DejaVuSans-4e"/>
     <use x="311.982422" xlink:href="#DejaVuSans-49"/>
     <use x="341.474609" xlink:href="#DejaVuSans-41"/>
     <use x="409.882812" xlink:href="#DejaVuSans-4b"/>
     <use x="475.302734" xlink:href="#DejaVuSans-2d"/>
     <use x="511.386719" xlink:href="#DejaVuSans-4b"/>
     <use x="576.947266" xlink:href="#DejaVuSans-41"/>
     <use x="645.355469" xlink:href="#DejaVuSans-4d"/>
     <use x="731.634766" xlink:href="#DejaVuSans-59"/>
     <use x="792.71875" xlink:href="#DejaVuSans-53"/>
     <use x="856.195312" xlink:href="#DejaVuSans-5a"/>
     <use x="924.701172" xlink:href="#DejaVuSans-3a"/>
     <use x="958.392578" xlink:href="#DejaVuSans-20"/>
     <use x="990.179688" xlink:href="#DejaVuSans-32"/>
     <use x="1053.802734" xlink:href="#DejaVuSans-2e"/>
     <use x="1085.589844" xlink:href="#DejaVuSans-33"/>
     <use x="1149.212891" xlink:href="#DejaVuSans-37"/>
     <use x="1212.835938" xlink:href="#DejaVuSans-25"/>
    </g>
   </g>
   <g id="text_18">
    <g id="patch_37">
     <path d="M 311.252273 187.440867 
L 410.106023 187.440867 
L 410.106023 171.530555 
L 311.252273 171.530555 
z
" style="fill:#ffffff;fill-opacity:0.439216;stroke:#ffffff;stroke-linejoin:miter;stroke-opacity:0.439216;"/>
    </g>
    <!-- PIOTROWSKI: 0.40% -->
    <g transform="translate(314.852273 181.969148)scale(0.09 -0.09)">
     <use xlink:href="#DejaVuSans-50"/>
     <use x="60.302734" xlink:href="#DejaVuSans-49"/>
     <use x="89.794922" xlink:href="#DejaVuSans-4f"/>
     <use x="168.505859" xlink:href="#DejaVuSans-54"/>
     <use x="229.589844" xlink:href="#DejaVuSans-52"/>
     <use x="299.072266" xlink:href="#DejaVuSans-4f"/>
     <use x="377.783203" xlink:href="#DejaVuSans-57"/>
     <use x="476.660156" xlink:href="#DejaVuSans-53"/>
     <use x="540.136719" xlink:href="#DejaVuSans-4b"/>
     <use x="605.712891" xlink:href="#DejaVuSans-49"/>
     <use x="635.205078" xlink:href="#DejaVuSans-3a"/>
     <use x="668.896484" xlink:href="#DejaVuSans-20"/>
     <use x="700.683594" xlink:href="#DejaVuSans-30"/>
     <use x="764.306641" xlink:href="#DejaVuSans-2e"/>
     <use x="796.09375" xlink:href="#DejaVuSans-34"/>
     <use x="859.716797" xlink:href="#DejaVuSans-30"/>
     <use x="923.339844" xlink:href="#DejaVuSans-25"/>
    </g>
   </g>
   <g id="text_19">
    <g id="patch_38">
     <path d="M 368.594021 227.321518 
L 481.937771 227.321518 
L 481.937771 211.411205 
L 368.594021 211.411205 
z
" style="fill:#ffffff;fill-opacity:0.439216;stroke:#ffffff;stroke-linejoin:miter;stroke-opacity:0.439216;"/>
    </g>
    <!-- TRZASKOWSKI: 27.67% -->
    <g transform="translate(372.194021 221.849799)scale(0.09 -0.09)">
     <use xlink:href="#DejaVuSans-54"/>
     <use x="61.083984" xlink:href="#DejaVuSans-52"/>
     <use x="130.566406" xlink:href="#DejaVuSans-5a"/>
     <use x="199.072266" xlink:href="#DejaVuSans-41"/>
     <use x="267.480469" xlink:href="#DejaVuSans-53"/>
     <use x="330.957031" xlink:href="#DejaVuSans-4b"/>
     <use x="396.455078" xlink:href="#DejaVuSans-4f"/>
     <use x="475.166016" xlink:href="#DejaVuSans-57"/>
     <use x="574.042969" xlink:href="#DejaVuSans-53"/>
     <use x="637.519531" xlink:href="#DejaVuSans-4b"/>
     <use x="703.095703" xlink:href="#DejaVuSans-49"/>
     <use x="732.587891" xlink:href="#DejaVuSans-3a"/>
     <use x="766.279297" xlink:href="#DejaVuSans-20"/>
     <use x="798.066406" xlink:href="#DejaVuSans-32"/>
     <use x="861.689453" xlink:href="#DejaVuSans-37"/>
     <use x="925.3125" xlink:href="#DejaVuSans-2e"/>
     <use x="957.099609" xlink:href="#DejaVuSans-36"/>
     <use x="1020.722656" xlink:href="#DejaVuSans-37"/>
     <use x="1084.345703" xlink:href="#DejaVuSans-25"/>
    </g>
   </g>
   <g id="text_20">
    <g id="patch_39">
     <path d="M 465.791541 190.98423 
L 560.674041 190.98423 
L 560.674041 175.073917 
L 465.791541 175.073917 
z
" style="fill:#ffffff;fill-opacity:0.439216;stroke:#ffffff;stroke-linejoin:miter;stroke-opacity:0.439216;"/>
    </g>
    <!-- WITKOWSKI: 7.91% -->
    <g transform="translate(469.391541 185.512511)scale(0.09 -0.09)">
     <use xlink:href="#DejaVuSans-57"/>
     <use x="98.876953" xlink:href="#DejaVuSans-49"/>
     <use x="128.369141" xlink:href="#DejaVuSans-54"/>
     <use x="189.453125" xlink:href="#DejaVuSans-4b"/>
     <use x="254.951172" xlink:href="#DejaVuSans-4f"/>
     <use x="333.662109" xlink:href="#DejaVuSans-57"/>
     <use x="432.539062" xlink:href="#DejaVuSans-53"/>
     <use x="496.015625" xlink:href="#DejaVuSans-4b"/>
     <use x="561.591797" xlink:href="#DejaVuSans-49"/>
     <use x="591.083984" xlink:href="#DejaVuSans-3a"/>
     <use x="624.775391" xlink:href="#DejaVuSans-20"/>
     <use x="656.5625" xlink:href="#DejaVuSans-37"/>
     <use x="720.185547" xlink:href="#DejaVuSans-2e"/>
     <use x="751.972656" xlink:href="#DejaVuSans-39"/>
     <use x="815.595703" xlink:href="#DejaVuSans-31"/>
     <use x="879.21875" xlink:href="#DejaVuSans-25"/>
    </g>
   </g>
   <g id="text_21">
    <g id="patch_40">
     <path d="M 487.26751 165.24071 
L 564.344072 165.24071 
L 564.344072 149.330398 
L 487.26751 149.330398 
z
" style="fill:#ffffff;fill-opacity:0.439216;stroke:#ffffff;stroke-linejoin:miter;stroke-opacity:0.439216;"/>
    </g>
    <!-- ŻÓŁTEK: 2.77% -->
    <g transform="translate(490.86751 159.768991)scale(0.09 -0.09)">
     <use xlink:href="#DejaVuSans-17b"/>
     <use x="68.505859" xlink:href="#DejaVuSans-d3"/>
     <use x="147.216797" xlink:href="#DejaVuSans-141"/>
     <use x="203.417969" xlink:href="#DejaVuSans-54"/>
     <use x="264.501953" xlink:href="#DejaVuSans-45"/>
     <use x="327.685547" xlink:href="#DejaVuSans-4b"/>
     <use x="393.261719" xlink:href="#DejaVuSans-3a"/>
     <use x="426.953125" xlink:href="#DejaVuSans-20"/>
     <use x="458.740234" xlink:href="#DejaVuSans-32"/>
     <use x="522.363281" xlink:href="#DejaVuSans-2e"/>
     <use x="554.150391" xlink:href="#DejaVuSans-37"/>
     <use x="617.773438" xlink:href="#DejaVuSans-37"/>
     <use x="681.396484" xlink:href="#DejaVuSans-25"/>
    </g>
   </g>
   <g id="text_22">
    <g id="patch_41">
     <path d="M 497.30734 150.737652 
L 559.751871 150.737652 
L 559.751871 134.82734 
L 497.30734 134.82734 
z
" style="fill:#ffffff;fill-opacity:0.439216;stroke:#ffffff;stroke-linejoin:miter;stroke-opacity:0.439216;"/>
    </g>
    <!-- NIKT: 2.77% -->
    <g transform="translate(500.90734 145.265934)scale(0.09 -0.09)">
     <use xlink:href="#DejaVuSans-4e"/>
     <use x="74.804688" xlink:href="#DejaVuSans-49"/>
     <use x="104.296875" xlink:href="#DejaVuSans-4b"/>
     <use x="169.763672" xlink:href="#DejaVuSans-54"/>
     <use x="230.675781" xlink:href="#DejaVuSans-3a"/>
     <use x="264.367188" xlink:href="#DejaVuSans-20"/>
     <use x="296.154297" xlink:href="#DejaVuSans-32"/>
     <use x="359.777344" xlink:href="#DejaVuSans-2e"/>
     <use x="391.564453" xlink:href="#DejaVuSans-37"/>
     <use x="455.1875" xlink:href="#DejaVuSans-37"/>
     <use x="518.810547" xlink:href="#DejaVuSans-25"/>
    </g>
   </g>
  </g>
 </g>
</svg>
